# xmcd
#
# Track frame offsets:
#	150
#	17343
#	34923
#	51854
#	78125
#	111539
#	134069
#	159120
#	182163
#	202426
#	217864
#
# Disc length: 3179 seconds
#
# Revision: 1
# Processed by: cddbd v1.5.2PL0 Copyright (c) Steve Scherf et al.
# Submitted via: audiograbber 1.83.01
#
DISCID=970c690b
DTITLE=Van Morrison - Live in Austin, Texas  2006
DYEAR=2014
DGENRE=Ballad
TTITLE0=Wild Night
TTITLE1=Choppin´ Wood
TTITLE2=There Stands The Glass
TTITLE3=Playhouse
TTITLE4=I´m Not Feeling It Anymore
TTITLE5=Cleaning Windows
TTITLE6=Saint James Infirmary
TTITLE7=I Can`t Stop Loving You
TTITLE8=Don`t Start Crying Now - Custard Pie
TTITLE9=Brown Eyed Girl
TTITLE10=Gloria
EXTD=
EXTT0=
EXTT1=
EXTT2=
EXTT3=
EXTT4=
EXTT5=
EXTT6=
EXTT7=
EXTT8=
EXTT9=
EXTT10=
PLAYORDER=
